<svg width="93" height="27" viewBox="0 0 93 27" fill="none" xmlns="http://www.w3.org/2000/svg">
<g clip-path="url(#clip0)">
<path fill-rule="evenodd" clip-rule="evenodd" d="M3.90223 25.6289C3.88181 25.61 2.33189 25.0101 2.28164 25.0007C1.42267 24.6599 2.67736 21.511 2.71191 20.864C2.79828 20.7776 3.34005 20.7226 3.37773 20.9127C3.37773 21.9319 3.38873 21.3084 3.8614 21.7293C3.88007 21.7734 3.90981 21.8119 3.94774 21.8411C3.98567 21.8704 4.0305 21.8893 4.07789 21.8961C4.12528 21.9029 4.17362 21.8973 4.21823 21.8799C4.26283 21.8625 4.30219 21.8339 4.3325 21.7969C4.3325 21.2174 4.45655 21.5393 4.82872 21.5754C5.06899 21.7089 7.55483 21.7733 7.43705 22.0089C7.28002 22.2052 7.1591 22.6811 7.32556 22.9198C7.32556 23.3909 7.17795 23.8024 7.16853 24.3128C6.91099 24.8295 7.34597 25.2551 6.58279 25.4656C5.67042 25.5017 4.75963 25.5095 3.90223 25.6289Z" fill="#E03127"/>
<path fill-rule="evenodd" clip-rule="evenodd" d="M1.30027 24.7103C0.35807 24.4732 -0.167992 23.2969 0.460142 22.4535C0.617176 22.086 0.585769 21.5599 0.774209 21.2489C0.893555 20.9348 1.08828 20.7354 1.11026 20.4087C1.55781 19.8528 1.24845 21.2097 2.07916 20.9333C2.50001 20.4087 1.95196 22.0326 1.94882 22.1347C1.66758 22.861 1.58254 23.6486 1.70228 24.4182C1.66145 24.7103 1.53425 24.6915 1.30027 24.7103Z" fill="#E03127"/>
<path fill-rule="evenodd" clip-rule="evenodd" d="M3.84735 21.5207C3.29616 21.4029 3.74999 19.7193 4.26349 19.9941C4.99369 20.0381 4.41424 21.3778 3.84735 21.5207Z" fill="#E03127"/>
<path fill-rule="evenodd" clip-rule="evenodd" d="M7.02406 21.3149C6.51684 21.0291 5.41761 21.439 4.87427 21.0291C4.28382 20.9615 5.0313 20.1778 4.70153 19.9297C4.3011 19.9297 4.15506 19.4931 3.72793 19.8606C3.65569 19.9831 3.70908 20.4213 3.44527 20.2925C2.77316 20.2768 3.01813 20.2925 3.04326 19.7962C3.10136 19.6172 3.63371 17.8378 3.68396 17.797C3.81429 17.3384 4.50995 16.9552 4.95436 17.1688C5.58249 17.23 5.75523 16.963 6.36766 17.3258C6.68173 17.7106 7.4669 17.4499 7.78096 17.6917C8.12958 17.7122 8.34157 17.9603 8.64936 18.1456C9.16129 18.1456 8.72787 19.0141 8.60539 19.3015C8.58026 19.7868 8.29132 20.2438 8.21438 20.7684C7.96626 21.3243 7.50615 21.2583 7.02406 21.3149Z" fill="#E03127"/>
<path fill-rule="evenodd" clip-rule="evenodd" d="M1.76975 20.7149C1.4761 20.5688 1.54519 19.647 1.82785 19.6155C2.73708 19.6061 2.11994 20.6536 1.76975 20.7149Z" fill="#E03127"/>
<path fill-rule="evenodd" clip-rule="evenodd" d="M2.47638 19.9642C2.24397 19.8386 2.63342 19.5135 2.10735 19.4758C1.92676 19.3188 2.00999 19.3188 1.77758 19.3313C0.964149 19.468 1.48079 18.5885 1.57187 18.2226C1.60267 17.8062 1.70299 17.398 1.86866 17.0149C2.12463 15.9375 4.68742 16.6898 3.9101 17.0494C2.79516 17.051 3.00873 19.8009 2.47638 19.9642Z" fill="#E03127"/>
<path fill-rule="evenodd" clip-rule="evenodd" d="M1.49183 19.6957C1.34265 19.6957 1.54522 19.3392 1.54522 19.669C1.52681 19.6766 1.50896 19.6855 1.49183 19.6957Z" fill="#E03127"/>
<path fill-rule="evenodd" clip-rule="evenodd" d="M10.6334 10.1927C10.3617 10.0843 10.3193 9.36031 10.1733 9.10746C10.1199 8.87974 9.84667 8.82634 9.79956 8.59077C9.53261 8.24997 9.5012 7.73956 9.08506 7.56995C7.55555 7.56995 8.93588 6.88521 9.42425 6.56012C9.5436 6.07797 9.14316 6.35752 8.93588 6.12509C8.84009 5.94919 8.70661 5.4859 8.62181 5.27074C7.80838 4.38183 10.1168 4.38183 9.60641 3.86985C8.58883 3.53062 8.51817 4.85298 7.77383 5.01003C7.54927 5.12154 7.29017 5.49532 7.0075 5.32413C6.76253 4.95507 8.10674 4.46036 8.13972 3.94052C8.20096 3.75049 7.05776 2.31663 6.84105 2.22554C6.49243 1.76224 6.55211 2.02609 6.22548 1.91144C5.79049 1.54866 6.66988 1.3068 6.93527 1.16545C7.05776 1.04296 7.19909 0.851355 7.37339 0.826227C7.65134 0.702158 7.82094 -0.0202712 8.06748 0.724145C8.16013 1.50939 8.87621 2.26166 9.08035 3.04848C9.39442 3.41441 9.82626 3.37357 10.0587 3.87456C10.1168 3.96251 10.3162 3.87456 10.4355 4.11014C10.4355 4.60642 10.4858 5.10898 10.4937 5.63666C10.6962 5.83926 10.9145 5.60839 11.1045 5.89737C11.1045 6.05442 10.4638 7.05482 10.6915 7.20873C11.1626 7.20873 11.6667 7.06268 11.271 7.72228C11.271 8.13533 10.9993 8.50753 10.9569 8.89859C10.8109 9.2441 11.0904 10.155 10.6428 10.1942L10.6334 10.1927ZM10.8611 12.5924C10.7983 12.5924 10.7229 12.4275 10.7041 12.3804C10.6819 12.2729 10.6873 12.1616 10.7198 12.0569C10.7653 11.8872 10.8972 11.6234 11.1092 11.6391C11.1681 11.6463 11.2231 11.6722 11.2663 11.7129C11.4563 11.87 11.4359 12.0898 11.4029 12.3128C11.4035 12.3733 11.3827 12.432 11.3442 12.4785C11.3056 12.5251 11.2519 12.5565 11.1925 12.5673C11.0811 12.5871 10.9679 12.5955 10.8548 12.5924H10.8611ZM11.1548 13.8786C11.0297 13.8251 10.9305 13.7248 10.8784 13.5991C10.7999 13.442 10.847 13.3258 11.0354 13.3133C11.1077 13.1656 11.2584 12.9096 11.4186 13.106C11.5155 13.2743 11.5588 13.4683 11.5426 13.6619C11.5394 13.7277 11.5146 13.7907 11.472 13.8409C11.4092 13.9085 11.3479 13.8833 11.2647 13.8833C11.2307 13.8839 11.1967 13.8791 11.1642 13.8692L11.1548 13.8786ZM10.8611 18.9702C10.233 18.6718 10.7606 17.7735 11.048 18.0609C11.1501 18.375 11.3715 18.9404 10.8611 18.9702ZM1.49248 19.6958C1.3433 19.6958 1.54588 19.3393 1.54588 19.6691C1.52746 19.6767 1.50961 19.6856 1.49248 19.6958ZM2.47394 19.9643C3.00629 19.8073 2.78801 17.051 3.90295 17.051C4.68812 16.6914 2.12062 15.9391 1.86151 17.0165C1.69584 17.3997 1.59552 17.8079 1.56472 18.2242C1.47521 18.5901 0.956999 19.4696 1.77043 19.333C2.00284 19.3173 1.91962 19.3141 2.1002 19.4775C2.62156 19.5136 2.23682 19.8402 2.46923 19.9659L2.47394 19.9643ZM1.77043 20.715C2.12062 20.6585 2.73619 19.6157 1.82854 19.6157C1.54587 19.6534 1.47678 20.5752 1.77043 20.715ZM7.02478 21.3181C6.51756 21.0291 5.41832 21.439 4.87499 21.0291C4.28454 20.9616 5.03202 20.1779 4.70225 19.9298C4.30182 19.9298 4.15577 19.4932 3.72864 19.8607C3.65641 19.9832 3.7098 20.4213 3.44598 20.2926C2.77388 20.2768 3.01885 20.2925 3.04398 19.7963C3.10208 19.6172 3.63442 17.8379 3.68467 17.797C3.81501 17.3384 4.51067 16.9552 4.95508 17.1688C5.58321 17.2301 5.75595 16.9631 6.36838 17.3259C6.68245 17.7107 7.46761 17.4499 7.78168 17.6918C8.13029 17.7122 8.34229 17.9604 8.65008 18.1457C9.16201 18.1457 8.72859 19.0142 8.60611 19.3016C8.58098 19.7868 8.29204 20.2439 8.21509 20.7684C7.97326 21.3149 7.51315 21.2396 7.03263 21.304L7.02478 21.3181ZM3.84799 21.5207C3.2968 21.4029 3.75063 19.7193 4.26413 19.9942C5.00219 20.0397 4.42116 21.3793 3.84799 21.5207ZM8.29204 21.9023C8.72545 21.8678 9.89692 20.5941 9.32689 20.3098C8.96571 19.947 9.55459 18.6561 9.6017 18.2022C9.7022 17.9776 9.65666 17.7216 9.73361 17.4924C9.82369 17.246 9.90023 16.9948 9.96288 16.7401C10.0643 16.2463 10.12 15.7443 10.1293 15.2403C10.1403 14.8429 10.1497 14.3733 9.9723 14.0074C9.95346 13.3871 9.65038 12.8892 9.6174 12.3537C9.41483 11.9438 9.4321 11.4412 9.22953 11.0831C9.1573 10.2759 8.83224 11.1554 8.74116 11.3077C8.65479 11.8166 7.85392 12.5233 7.57911 12.9379C7.19123 13.1923 6.86146 14.5634 6.46103 14.6309C6.17837 14.788 6.55054 15.1335 6.47516 15.369C6.31813 15.5544 6.80022 15.8308 6.80022 16.2517C6.68402 16.4872 5.85802 16.5124 6.39193 16.6898C6.59765 16.8359 6.72798 17.0212 7.03263 17.1264C7.3624 17.1264 8.97985 17.4782 9.0301 17.9117C9.27978 18.2446 8.61553 20.7056 8.43337 21.1579C8.39725 21.4469 7.96227 21.7248 8.2889 21.9102L8.29204 21.9023ZM1.3009 24.7104C0.358701 24.4732 -0.167362 23.2969 0.460773 22.4536C0.617806 22.0861 0.5864 21.5599 0.77484 21.249C0.894186 20.9349 1.08891 20.7354 1.11089 20.4088C1.55844 19.8528 1.24908 21.2097 2.07979 20.9333C2.50064 20.4088 1.95259 22.0327 1.94945 22.1347C1.66821 22.8611 1.58317 23.6486 1.70291 24.4182C1.66365 24.7072 1.53645 24.6899 1.30247 24.7072L1.3009 24.7104ZM3.90295 25.6291C4.76035 25.5097 5.67272 25.5035 6.57252 25.4721C7.3357 25.2569 6.90072 24.836 7.15826 24.3193C7.17396 23.8089 7.31529 23.4021 7.31529 22.9263C7.14884 22.6891 7.27289 22.2133 7.42678 22.0154C7.54456 21.7798 5.05872 21.7154 4.81846 21.5819C4.44629 21.5458 4.32223 21.2239 4.32223 21.8034C4.29193 21.8404 4.25256 21.869 4.20796 21.8864C4.16335 21.9038 4.11501 21.9094 4.06762 21.9026C4.02023 21.8958 3.9754 21.8769 3.93747 21.8476C3.89955 21.8184 3.8698 21.7799 3.85113 21.7358C3.38003 21.3149 3.36747 21.9384 3.36747 20.9192C3.33449 20.7307 2.78801 20.7857 2.70164 20.8705C2.6671 21.5175 1.41397 24.668 2.27137 25.0072C2.32162 25.0072 3.87154 25.6103 3.89196 25.6354L3.90295 25.6291ZM11.5678 25.6527C11.1799 25.4422 11.5254 25.0794 11.6463 24.8203C12.1252 23.7838 11.6651 22.2745 11.6259 21.1657C11.6023 20.525 11.461 20.6035 12.097 20.6946C12.3419 20.7291 12.601 20.5894 12.4236 21.0637C12.3388 21.6683 12.5398 22.3122 12.4346 22.9561C12.4346 23.5843 12.265 24.0555 12.6544 24.6648C12.8115 24.8219 13.1789 25.2726 12.8696 25.4909C12.3718 25.4909 12.0169 25.6291 11.574 25.6479L11.5678 25.6527ZM8.78041 25.6527C9.30334 25.6401 9.94089 25.3747 9.06936 25.1815C8.7019 25.1014 8.80868 23.9377 8.69405 23.4697C8.46949 22.5478 11.6384 21.0401 11.3024 20.4198C11.0982 20.0428 11.249 19.5921 11.2191 19.2058C11.2191 18.9404 11.7012 16.9066 11.3055 17.1029C10.96 17.6227 10.3884 16.5155 10.8344 16.2956C11.2961 16.2956 11.2427 17.0102 11.4625 17.0102C11.5002 16.9788 12.0075 14.8916 11.4359 15.3031C11.3966 15.3313 11.2239 15.3031 11.1736 15.2937C11.1061 15.29 11.0395 15.2767 10.9757 15.2544C10.8077 15.19 10.8093 15.0738 10.847 14.9214C10.8651 14.8124 10.9063 14.7086 10.9679 14.6168C11.0067 14.573 11.0556 14.5393 11.1103 14.5185C11.165 14.4978 11.2239 14.4905 11.282 14.4974C11.3966 14.5304 11.3919 14.634 11.4123 14.733C11.4327 14.8319 11.5128 14.9811 11.64 14.9324C12.0923 14.7628 11.4044 14.3042 11.8253 14.1001C12.1221 14.1001 11.5835 18.6294 11.5693 19.1587C11.5112 19.6157 11.1642 20.3444 11.9164 20.4323C11.9896 20.4523 12.0614 20.477 12.1315 20.5061C12.21 20.5266 12.2885 20.5438 12.3671 20.5564C12.6623 20.6067 12.9622 20.6208 13.2574 20.671C13.4039 20.695 13.5476 20.734 13.6861 20.7873C13.735 20.812 13.7902 20.8215 13.8445 20.8145C13.8988 20.8075 13.9498 20.7843 13.9908 20.748C14.0438 20.6794 14.074 20.5959 14.0772 20.5093C14.1371 20.0277 14.117 19.5394 14.0175 19.0644C13.9762 18.8254 13.9174 18.5897 13.8416 18.3593C13.8138 18.2721 13.7796 18.1871 13.7395 18.1048C13.7004 18.055 13.6647 18.0026 13.6328 17.9478C13.3894 17.205 13.2433 16.426 12.9921 15.6721C12.9771 15.5776 12.9698 15.482 12.9701 15.3863C12.9559 15.2858 12.9355 15.1869 12.912 15.0879C12.868 14.9026 12.8083 14.7204 12.7549 14.5367C12.7015 14.3529 12.6921 14.1817 12.6356 14.0121C12.5791 13.8425 12.4786 13.6509 12.4173 13.4593C12.2558 12.8483 12.1393 12.2263 12.0687 11.5983C12.0342 11.325 12.0027 11.0502 11.9902 10.7753C11.9644 10.6294 11.9724 10.4795 12.0137 10.3372C12.0137 9.87858 11.5913 7.31553 12.3985 7.31553C12.4943 7.51027 14.7414 7.8652 14.754 7.85892C15.5391 7.80552 18.7866 7.68616 19.0645 8.98025C19.1949 9.1907 19.487 8.96612 19.5451 9.20798C19.8026 9.46397 19.9439 8.36933 19.922 8.25154C19.5011 8.03953 19.5199 7.65004 19.0693 8.03481C17.97 8.03481 17.334 7.29825 16.2819 7.13021C16.0966 7.10037 14.6974 6.57896 14.5169 6.81611C14.3363 7.05325 13.4349 6.58839 13.1161 6.51143C12.9873 6.48159 12.8507 6.31669 12.7722 6.3057C12.3168 5.93977 13.003 4.06773 11.8567 4.92209C11.5426 5.24404 11.2584 5.1718 10.9145 5.28487C10.5298 5.74346 11.3589 5.66807 11.5631 5.74817C11.8771 6.21932 10.3979 6.90877 11.7201 7.00457C12.1189 7.10194 11.585 7.89818 11.5269 8.15574C11.1029 8.90173 11.0715 9.654 11.0715 10.6089C10.7952 11.2999 9.86081 9.2598 9.7713 9.08234C9.61426 8.09763 9.11176 7.83693 8.16327 7.83693C7.97797 7.80081 8.11302 7.24956 8.16327 7.1412C8.97514 6.40778 7.45034 6.59153 7.30587 6.80982C7.30587 7.44588 8.05335 8.69442 7.75499 9.28493C7.48803 9.51108 7.51629 10.9685 7.11743 11.2245C6.78295 11.4397 4.9959 14.6466 5.59106 15.0063C5.88785 15.4052 5.69627 15.5072 5.27699 15.5072C4.91111 15.1837 5.12781 15.7994 5.05715 16.0239C5.03516 16.5877 4.52323 16.126 4.45885 16.4825C4.14478 17.0118 5.07442 16.8704 5.44345 16.8704C5.51726 16.8422 5.48428 16.5422 5.48428 16.5029C5.62247 16.1543 6.39193 16.2265 6.00092 15.8072C6.00092 15.3895 5.75595 14.7393 5.91141 14.4252C6.47202 14.2022 6.74526 13.2551 7.08288 12.8044C7.11429 12.5657 7.32157 12.5547 7.35926 12.3992C7.92301 11.9516 8.83067 10.433 8.92175 9.71054C9.0882 9.31477 9.39285 10.4298 9.39285 10.557C10.0587 12.3647 10.8501 15.4256 10.0728 17.1908C10.0257 17.9761 9.63782 18.799 9.49021 19.5701C9.09919 20.3554 10.4324 20.0209 10.3759 20.558C10.2188 20.715 10.0037 20.2313 9.73675 20.7307C9.07564 21.4783 8.94216 22.2651 7.85235 22.2651C7.11115 22.6357 8.05178 23.2168 8.09575 23.7712C8.43651 24.5376 7.55555 25.3024 8.7867 25.6558L8.78041 25.6527ZM4.30339 25.9181C4.53265 25.9181 6.09985 25.8537 6.10927 25.8333C6.11869 25.8129 6.83163 25.8568 6.91486 25.8568C7.36083 25.5616 7.14255 24.8156 7.36083 24.7072C7.58225 24.4214 7.25719 23.1257 7.68589 23.4116C8.08161 24.0162 7.70159 25.2569 8.0612 25.6699C8.29832 26.2196 10.8266 25.5726 9.88279 25.0417C8.72859 25.0276 9.09762 25.0166 9.01439 23.9738C8.92332 23.6597 8.82595 23.366 8.972 23.077C9.06151 22.9969 11.2333 21.1924 11.2333 21.0056C11.5238 20.7951 11.3683 22.3012 11.5191 22.5886C11.536 22.6537 11.5439 22.7208 11.5426 22.7881C11.5536 22.8682 11.5662 22.9451 11.5788 23.0284C11.6377 23.3351 11.6635 23.6474 11.6557 23.9597C11.6369 24.2738 11.483 24.4921 11.3636 24.7669C11.3354 24.8313 11.3055 24.8941 11.2757 24.9569C11.1646 25.1413 11.095 25.3476 11.0715 25.5616C11.0715 25.8097 11.3526 25.8568 11.5552 25.8568C11.9666 25.6527 13.0093 25.9652 13.1067 25.3621C13.3171 25.0355 12.6654 24.3947 12.5932 24.0932C12.5932 23.209 12.7502 22.3263 12.5932 21.4893C12.5932 20.5674 12.8539 20.9302 13.5087 20.9522C13.6973 21.0382 13.907 21.0666 14.1117 21.0338C14.3818 20.949 14.3912 20.5407 14.4148 20.3098C14.4572 19.8748 14.3237 19.5057 14.2577 19.0833C14.2279 18.8854 14.2263 18.6844 14.2028 18.4865C14.1672 18.1169 14.1095 17.7498 14.03 17.3871C13.9029 16.8563 13.6375 16.3585 13.5103 15.8339C13.4506 15.5905 13.4475 15.3392 13.3846 15.0973C13.3218 14.8555 13.2276 14.6262 13.1711 14.3922C13.0941 14.0922 13.025 13.7907 12.9292 13.4939C12.8578 13.2536 12.7986 13.0099 12.7518 12.7636C12.5603 11.8446 12.4256 10.9146 12.3482 9.97909C12.3073 9.54113 12.2905 9.10125 12.298 8.66144C12.2846 8.38058 12.3289 8.09996 12.4283 7.83693C12.6748 7.59036 12.8633 7.70658 13.1193 7.93116C13.2671 8.01806 13.4322 8.07166 13.6029 8.08821C13.7757 8.12276 13.9515 8.14475 14.1274 8.16359C14.5043 8.20286 14.8812 8.16359 15.2596 8.16359C16.0429 8.15121 16.8257 8.21168 17.5979 8.3442C17.9685 8.41801 18.8541 8.60805 18.6688 9.17185C18.372 9.46711 18.5118 9.8723 18.9625 9.8723C19.5561 10.0702 19.6817 24.2989 19.6817 24.9836C19.7806 25.1595 19.5247 25.5003 19.9424 25.3653C19.9424 25.3653 19.9518 25.3323 19.9518 25.326C19.9786 25.1287 19.9912 24.9298 19.9895 24.7308C20.0067 24.3209 20.0099 23.911 20.0225 23.4995C20.0382 22.9326 20.0382 22.3672 20.0429 21.8018C20.0429 21.139 20.0617 20.4763 20.0539 19.8135C20.0539 19.11 20.0633 18.4001 20.0539 17.7028C20.0444 17.0055 20.024 16.3129 20.0177 15.6187C20.0177 14.9906 19.9455 14.3514 19.9329 13.7169C19.9235 13.197 19.867 12.6976 19.8089 12.1825C19.79 12.0176 19.7948 11.8543 19.7838 11.6894C19.7588 11.5156 19.7134 11.3453 19.6487 11.1821C19.5329 10.867 19.4957 10.5285 19.5404 10.1958C19.5748 10.0138 19.6447 9.84042 19.7461 9.68541C19.823 9.56448 19.9801 9.28964 20.1135 9.22839C20.4967 8.98968 20.3522 8.28609 20.3522 7.94372C20.2329 7.7003 19.7948 7.5935 19.7948 7.30296C19.6613 7.07838 19.3582 7.17261 19.0488 7.28883L19.0159 7.0988C20.1261 6.3905 18.0438 4.95978 18.1742 6.7737C18.193 7.05011 18.6453 6.97159 18.7128 7.16476L18.7897 7.3862C18.5919 7.4553 18.4081 7.49613 18.2951 7.42075C18.1051 7.3752 17.7078 6.99986 17.6245 6.99986C17.0844 6.73287 16.2741 6.70303 15.7056 6.51143C15.5125 6.35421 15.2768 6.25848 15.0288 6.23659C14.5467 6.18006 14.0473 6.29627 13.5747 6.14236C13.4737 6.10988 13.3805 6.05683 13.3011 5.98655C13.2216 5.91628 13.1576 5.8303 13.113 5.73403C13.047 5.60304 12.9943 5.46571 12.9559 5.32413C12.8947 5.15641 12.8541 4.98184 12.835 4.8043C12.835 3.32489 11.0354 5.41051 10.7009 5.07599C10.679 4.17924 10.2047 3.8196 11.2474 3.49136C11.7531 2.90243 10.39 2.89614 10.2518 3.2605C10.2408 3.29191 10.0948 3.30761 10.0681 3.30918C9.99873 3.30861 9.93084 3.28906 9.8718 3.25265C9.6017 3.0956 9.4007 2.76265 9.25623 2.49567C9.1905 2.35671 9.13283 2.21408 9.08349 2.06849C8.99365 1.8449 8.88872 1.62767 8.76942 1.4183C8.54486 1.00683 8.29832 0.556102 7.93243 0.251425C7.80367 0.144631 7.63093 0.0362667 7.46133 0.0943751C7.26033 0.171329 7.09544 0.454019 7.01536 0.640908C6.90993 0.742681 6.79592 0.83516 6.67459 0.917316C6.45161 1.07437 6.20349 1.20629 5.99935 1.37747C5.82033 1.52039 5.68528 1.7591 5.88628 1.95699C6.01505 2.08263 6.20035 2.13916 6.32912 2.27109C6.45789 2.40301 8.07219 4.05046 7.88846 4.17139C7.40794 4.18552 6.51756 5.23147 6.51756 5.65394C6.78609 6.18948 8.45064 4.41324 8.45064 5.60054C8.49775 5.67278 8.94687 6.34496 8.77727 6.42819C8.49932 6.42819 7.0766 6.25858 6.9494 6.38422C6.8913 6.44233 6.88659 6.66691 6.88188 6.74543C6.87656 6.87487 6.88604 7.00449 6.91014 7.13178C6.99337 7.61706 7.18652 8.07408 7.26347 8.56093C7.30609 8.79872 7.29752 9.04286 7.23834 9.27708C7.20537 9.39801 7.16454 9.51579 7.13627 9.63986C7.10801 9.76393 7.11429 9.92726 7.0766 10.0576C6.97899 10.3602 6.83316 10.6449 6.64476 10.901C6.55368 11.0329 6.46103 11.1617 6.37309 11.2952C6.32755 11.3643 6.28201 11.4349 6.23961 11.504C6.21606 11.5449 6.16423 11.6972 6.12498 11.7161C5.92711 11.815 5.15451 13.6556 5.15451 14.0137C4.89697 14.3875 5.38692 14.8068 4.66299 14.8068C4.20602 15.0816 4.82003 15.892 4.2657 15.892C3.98932 15.9815 4.038 16.5108 3.66426 16.2925C3.36432 16.2202 2.44725 16.0553 2.23211 16.1621C2.16102 16.2362 2.06578 16.2825 1.96358 16.2925C1.571 16.5579 0.671198 21.384 0.393248 21.918C0.115299 22.452 -0.0527273 24.2062 0.211089 24.5313C0.335146 24.6805 0.96171 24.8721 1.14073 24.8721C1.47835 25.0417 3.90766 25.995 4.14007 25.8144C4.28297 25.805 4.21388 25.8286 4.30496 25.9181H4.30339Z" fill="#231F20" stroke="#231F20" stroke-width="0.5" stroke-miterlimit="10"/>
<path fill-rule="evenodd" clip-rule="evenodd" d="M31.6737 16.6315C33.9915 16.6315 35.3749 14.1312 35.6183 13.4622C35.6513 13.3868 35.6325 13.346 35.6026 13.3319C35.5728 13.3177 35.543 13.3193 35.5068 13.3978L35.3592 13.6397C34.3197 15.2447 32.9613 16.0237 31.2057 16.0237C30.3875 16.0237 29.8583 15.5761 29.8583 14.8804C29.8583 13.6554 31.5135 12.3346 34.1862 12.3346C36.0046 12.3346 37.3818 12.4571 38.5957 12.5655L39.0181 12.6047C39.6844 12.6807 40.3544 12.7179 41.025 12.7162C42.6786 12.6754 43.8281 11.7409 43.883 11.4928C43.8887 11.476 43.8882 11.4578 43.8816 11.4413C43.875 11.4249 43.8627 11.4114 43.8469 11.4033H43.66L43.5438 11.4331L43.3224 11.4912C42.9365 11.6115 42.5392 11.6915 42.1368 11.73L41.8714 11.7551L40.8931 11.8179L35.5901 11.7896C32.4494 11.7692 30.9293 12.6204 30.2085 13.3366C29.7233 13.8187 29.4548 14.3904 29.4548 14.9432C29.4563 15.9499 30.3467 16.6315 31.6737 16.6315ZM38.1576 13.1968C38.379 13.0853 38.5093 13.0193 38.5093 12.8937C38.511 12.8745 38.5085 12.8552 38.5019 12.8371C38.4953 12.819 38.4848 12.8025 38.4712 12.7889C38.4576 12.7753 38.4411 12.7648 38.423 12.7582C38.4049 12.7516 38.3856 12.7491 38.3664 12.7508C38.1874 12.7508 37.2499 13.2486 36.4365 14.0307C35.4943 14.9291 34.8112 16.063 34.1454 17.1623C32.6944 19.551 31.3282 21.8141 27.6112 21.8141C25.4583 21.8141 23.9555 20.7917 23.9555 19.3265C23.9555 17.5989 25.9388 16.3127 27.7133 16.3127C29.1705 16.3127 30.0389 16.9252 30.0389 17.9523C30.0389 19.3657 28.6256 20.2358 27.3191 20.2358C26.7217 20.251 26.1284 20.133 25.5823 19.8903C25.3499 19.7913 25.3421 19.8023 25.3216 19.829L25.3028 19.8541L25.3248 19.884C25.4457 20.041 26.3157 20.4933 27.2327 20.4933C28.8109 20.4933 30.4441 19.5322 30.4441 17.924C30.4441 16.2546 28.6806 15.6483 27.495 15.6483C25.364 15.6483 23.4938 17.244 23.4938 19.0642C23.4938 20.8844 25.1756 22.1596 27.5766 22.1596C30.8225 22.1596 33.4858 20.4933 35.075 17.467C35.9497 15.7991 36.7239 14.5176 37.2578 13.8548C37.5054 13.5709 37.8126 13.3451 38.1576 13.1937V13.1968ZM49.296 19.7725C49.2441 19.7725 49.2222 19.7976 49.1295 19.906L48.3302 20.7635C47.6251 21.4985 47.1666 21.7592 46.9876 21.7592C46.8431 21.7592 46.7803 21.6979 46.7803 21.5518C46.7803 21.1184 47.6675 19.8494 48.3161 18.9228L49.029 17.8643L48.9426 17.8722L47.9847 17.9319L47.9737 17.9507C47.6932 18.4241 47.3871 18.8818 47.0567 19.3217L46.953 19.4552L46.8855 19.5212C46.6688 19.7222 46.4929 19.8164 46.3312 19.8164C46.2793 19.8164 46.2354 19.8164 46.1961 19.6987C46.1679 19.6003 46.1061 19.515 46.0214 19.4576C45.9368 19.4002 45.8346 19.3743 45.7329 19.3846C45.587 19.3869 45.4424 19.4118 45.3042 19.4584L46.2354 17.8737L45.2366 17.9381C45.2084 17.9507 44.7655 18.4266 44.7655 18.4266L43.9804 19.2715L43.7417 19.5259L43.068 20.2358L42.8654 20.4446C42.4877 20.8658 42.0666 21.2458 41.6092 21.5785C41.4744 21.687 41.3104 21.7526 41.1381 21.767C40.9543 21.767 40.9324 21.6806 40.9324 21.61C40.9324 21.1231 42.6079 18.5349 43.0272 18.0261L43.0869 17.9538L42.2923 17.9868C42.0583 17.9978 41.9955 18.1093 41.8117 18.4407L41.5134 18.948L41.5479 18.6433C41.5479 18.1863 41.3045 17.9099 40.8805 17.8847C40.4351 17.8652 39.9917 17.9558 39.5897 18.1486C39.1748 18.3388 38.8074 18.6188 38.514 18.9684C38.2989 19.2432 37.7901 19.9499 37.7037 20.5734C37.7037 20.5624 37.4132 20.8483 37.4132 20.8483C36.895 21.3273 36.3611 21.7717 35.9811 21.7717C35.7738 21.7717 35.7016 21.5974 35.7016 21.4341C35.7016 20.8671 36.0926 20.2091 37.1384 18.4501L37.6095 17.6554L38.2235 16.5702C38.814 15.5117 39.4798 14.3119 39.9132 13.8187L40.3011 13.3994C40.5288 13.1607 40.6544 13.0272 40.6544 12.9141C40.6553 12.9007 40.6534 12.8872 40.6486 12.8746C40.6439 12.862 40.6366 12.8505 40.627 12.841C40.6175 12.8314 40.606 12.8241 40.5934 12.8194C40.5808 12.8146 40.5673 12.8127 40.5539 12.8136C40.4817 12.8136 40.2901 13.0131 39.6714 13.6962L39.238 14.1674L39.1704 14.2365C38.7527 14.6668 37.4808 15.9734 36.0455 18.7061C35.5885 19.5934 35.3247 20.2766 35.3247 21.1231C35.3247 21.7309 35.5445 22.0261 35.9952 22.0261C36.4459 22.0261 37.2342 21.3979 37.7006 20.9268C37.7351 21.61 38.0822 22.0261 38.6554 22.0261C39.1987 22.0261 39.9493 21.2896 40.4189 20.8184L40.411 20.9755C40.411 21.4372 40.4927 21.7387 40.6623 21.8958C40.7214 21.9476 40.791 21.986 40.8663 22.0085C40.9417 22.031 41.021 22.037 41.0988 22.0261C41.7269 21.9775 42.198 21.5126 42.6205 21.1027L42.6833 21.0414L43.123 20.6048L43.704 19.9971L44.1594 19.4945L44.4012 19.2259L44.9179 18.6496L42.7194 22.0308L43.8186 21.9665L45.1471 19.7081C45.2382 19.6468 45.3042 19.6013 45.3921 19.6248C45.4329 19.6358 45.4455 19.6861 45.4659 19.7662L45.513 19.9107C45.5868 20.0583 45.7815 20.1384 46.0611 20.1384C46.2755 20.1092 46.4803 20.0307 46.6594 19.9091C46.5419 20.0885 46.4409 20.2783 46.3579 20.4761C46.2896 20.6584 46.254 20.8514 46.2526 21.0461C46.2526 21.2754 46.2998 22.023 46.9075 22.023C47.3425 22.023 47.8324 21.61 48.5296 20.9001C48.5391 20.8907 49.4043 19.9782 49.4043 19.8918C49.4056 19.8768 49.4038 19.8616 49.3989 19.8472C49.3941 19.8329 49.3864 19.8197 49.3762 19.8085C49.366 19.7973 49.3536 19.7883 49.3398 19.7821C49.326 19.7759 49.3111 19.7726 49.296 19.7725ZM38.6585 21.7168C38.492 21.7168 38.4073 21.588 38.4073 21.3351C38.4073 20.2907 39.7672 18.1753 40.879 18.1753C41.1129 18.1753 41.248 18.3323 41.248 18.6166C41.248 19.6343 39.5065 21.7215 38.6585 21.7215V21.7168ZM92.7817 19.7395C92.711 19.7395 92.6796 19.7756 92.587 19.8824L91.7861 20.7478C91.0433 21.5236 90.6115 21.7309 90.4749 21.7309C90.3383 21.7309 90.3178 21.6885 90.3178 21.5738C90.3178 21.1545 91.2365 19.8463 91.8442 18.9731L92.609 17.8345L92.4331 17.8502L91.4532 17.9114L91.4296 17.9491C91.1501 18.4209 90.845 18.877 90.5157 19.3155L90.4121 19.449H90.4246C90.3955 19.4653 90.3695 19.4865 90.3477 19.5118C90.1388 19.7049 89.9724 19.7945 89.8232 19.7945C89.7776 19.7945 89.7572 19.7945 89.729 19.7065C89.6987 19.5987 89.6318 19.5047 89.5399 19.4408C89.4479 19.3769 89.3365 19.347 89.2249 19.3563L88.8778 19.416L89.8028 17.8455L88.7224 17.913C88.5688 18.037 88.4269 18.1747 88.2984 18.3245L87.2934 19.3704L86.8066 19.8698C85.789 20.9158 84.985 21.7419 84.6364 21.7419C84.4793 21.7419 84.4793 21.6728 84.4793 21.6225C84.4793 21.1514 86.1564 18.56 86.5647 18.0669L86.6841 17.9209L85.7937 17.957C85.5346 17.9695 85.4655 18.0952 85.2771 18.4281L85.0808 18.7595L85.0918 18.6543C85.0918 18.1486 84.8248 17.8502 84.3788 17.8502C83.4084 17.8502 82.1804 18.5506 81.3324 19.5919L81.1753 19.785L81.0576 19.9185L80.9162 20.0881C80.6509 20.4022 79.7353 21.4278 78.7822 21.9052L81.1769 17.8879L80.0149 17.9774L79.9929 18.0214L79.5469 18.8365L79.5705 18.6276C79.5705 18.1203 79.2705 17.8423 78.7256 17.8423C77.8729 17.8423 76.5444 18.5334 75.8833 19.3202L75.2976 20.0222C74.9207 20.4588 74.4496 20.7085 74.0036 20.7085C74.3931 20.2735 74.7888 19.5589 74.7888 18.9385C74.7888 18.2742 74.4103 17.8392 73.8277 17.8392C73.0677 17.8392 72.1506 18.2789 71.3733 19.0171C71.0906 19.2817 70.8232 19.5622 70.5724 19.8573L69.748 20.7446C69.0052 21.5204 68.5734 21.7277 68.4368 21.7277C68.3002 21.7277 68.2797 21.6853 68.2797 21.5707C68.2797 21.2911 68.4525 21.0194 69.2801 19.7206L70.4751 17.8361L69.4873 17.9067C68.9167 18.4006 68.3969 18.9504 67.9358 19.5479L67.2198 20.4761C66.8225 20.9943 66.2776 21.7026 66.2053 21.745C66.221 21.745 66.2053 21.7325 66.2053 21.6916C66.2053 21.2205 67.1774 19.65 67.8872 18.5004L68.2954 17.8392L67.3124 17.9083C66.9577 18.2039 66.6303 18.5309 66.3341 18.8851L65.3511 20.1054C65.0718 20.4955 64.7563 20.8583 64.4089 21.1891C64.0273 21.5377 63.6865 21.7372 63.4667 21.7372C63.4036 21.7391 63.3408 21.7283 63.282 21.7054C63.2232 21.6826 63.1696 21.6482 63.1244 21.6043C63.0791 21.5603 63.0432 21.5077 63.0186 21.4496C62.994 21.3915 62.9814 21.3291 62.9814 21.266C62.9814 20.9975 63.0866 20.7085 63.3206 20.7085L63.6787 20.7666C63.8137 20.7666 64.0917 20.6347 64.0917 20.2436C64.0917 19.9782 63.9048 19.7992 63.6033 19.7725C63.0772 19.7316 62.6391 20.1651 62.5606 20.8043C61.7754 21.5016 61.1159 21.7466 60.7641 21.7309C60.3558 21.7183 60.2318 21.5566 60.2318 21.0414C60.2318 21.0414 60.2726 20.7038 60.282 20.6284C61.4174 20.3881 63.3018 19.7049 63.3018 18.6307C63.3046 18.5243 63.2852 18.4184 63.2449 18.3199C63.2045 18.2213 63.1441 18.1323 63.0674 18.0584C62.9907 17.9845 62.8995 17.9274 62.7995 17.8907C62.6996 17.8541 62.593 17.8387 62.4868 17.8455C61.7236 17.8455 60.7798 18.3606 59.8973 19.2589L59.4372 19.7725L59.244 19.9829C58.9722 20.3074 58.6817 20.6157 58.3741 20.9064C57.8621 21.3775 57.3377 21.8188 56.9702 21.8188C56.7503 21.8188 56.7331 21.5927 56.7331 21.5236C56.7111 20.886 57.6753 19.4348 58.7085 17.8989L59.5832 16.5734L62.5967 11.8729L61.7 11.9263C61.386 11.9404 61.1489 12.3016 60.7578 12.9L60.3386 13.5533C58.4981 16.1399 56.5399 17.4403 55.9134 17.4403C55.5192 17.4403 55.4862 17.2832 55.4862 17.1262C55.4862 16.8372 55.7877 16.3708 56.1144 15.8698L56.3703 15.4693C56.7299 14.8882 56.9985 14.0276 56.9985 13.4669C56.9985 12.9063 56.8744 12.1666 56.2808 11.7158C55.7233 11.2918 54.8816 11.2305 53.7793 11.5352C51.9624 12.0158 50.6983 13.3915 50.6983 14.8867V14.9039C50.6983 15.8462 51.2385 16.4022 52.1273 16.4053C52.4558 16.4085 52.7814 16.3444 53.0842 16.2169C53.3869 16.0894 53.6603 15.9013 53.8876 15.6641C54.5063 15.0359 54.8581 14.0386 54.8298 13.0021C54.8298 12.6628 54.8047 12.4744 54.7435 12.4445L54.6838 12.4147L54.6602 12.4901V13.0712C54.4592 14.9558 53.4793 16.0645 52.1021 15.9797C51.2589 15.9279 51.1945 15.0767 51.1945 14.8176C51.2055 14.4921 51.2805 14.1721 51.4152 13.8756C51.5499 13.5792 51.7417 13.3123 51.9797 13.09C52.7779 12.308 53.8461 11.8627 54.9633 11.8462C55.6071 11.8462 56.3012 12.2168 56.3012 13.0146C56.3012 13.525 56.05 14.1375 55.4627 15.0563L55.2538 15.3814C54.8706 15.9703 54.6602 16.2954 54.6602 16.7822C54.6602 17.7732 55.549 17.7732 55.8411 17.7732C56.6624 17.7732 57.9925 16.6896 58.93 15.7394L57.3031 18.3355C56.7676 19.1914 56.273 20.1305 56.273 21.2048C56.273 21.833 56.5117 22.1471 56.9843 22.1471C57.4994 22.1471 58.473 21.332 58.8687 20.8765L59.4372 20.2436L59.4183 20.4431C59.4183 20.9928 59.5927 21.4906 59.8894 21.7796C59.9904 21.8805 60.1112 21.9594 60.2442 22.0113C60.3771 22.0632 60.5194 22.0869 60.662 22.0811C61.3279 22.067 61.8901 21.8047 62.5841 21.1938C62.6611 21.8 63.0552 22.0811 63.4243 22.0811C63.8294 22.0811 64.1451 21.844 64.5235 21.5346C64.7992 21.285 65.0525 21.0118 65.2804 20.7179L65.6746 20.2106C65.8991 19.9201 66.1692 19.5824 66.4597 19.2448C65.8818 20.1494 65.5819 20.8655 65.5819 21.3964C65.5819 21.6901 65.6416 22.0811 66.1645 22.0811C66.3639 22.0811 66.6984 21.7372 67.3218 20.8938L67.3878 20.8059L67.6532 20.4556C67.8825 20.151 68.1243 19.8384 68.3755 19.5306C68.0238 20.0646 67.672 20.6896 67.672 21.0619C67.672 21.3006 67.7223 22.0827 68.3708 22.0827C68.8215 22.0827 69.313 21.6665 70.0244 20.9472C70.3243 20.6331 70.8205 20.085 70.8896 19.9688L70.8818 20.0238L70.8221 20.6975C70.8221 21.5691 71.1927 22.0858 71.813 22.0858C72.6798 22.0858 73.2923 21.5267 73.7272 21.0383C73.7737 21.052 73.8217 21.0599 73.8701 21.0619C74.1529 21.0611 74.4325 21.0028 74.6919 20.8905C74.9514 20.7782 75.1852 20.6142 75.3792 20.4085C75.5159 20.2656 75.5944 20.1792 75.6399 20.1211C75.6399 20.1824 75.6399 20.2452 75.6399 20.2452L75.5787 20.7258C75.5787 21.6429 75.9022 22.0858 76.5695 22.0858C77.2699 22.0858 78.0425 21.3006 78.4539 20.8027L77.7002 22.3449C75.3117 23.6862 73.6079 24.7415 73.6079 25.9571C73.6127 26.2188 73.7211 26.4679 73.9094 26.6497C73.9933 26.736 74.0937 26.8046 74.2045 26.8515C74.3153 26.8984 74.4344 26.9227 74.5548 26.9229C76.0152 26.901 77.9373 23.6045 78.5545 22.3371C79.1449 22.1628 80.1044 21.4341 80.8644 20.5891L80.9948 20.4446L81.1863 20.2248C81.1706 20.3818 81.1392 20.6598 81.1392 20.6614C81.1392 21.8345 81.6857 22.0748 82.1442 22.0748C82.6891 22.0748 83.4225 21.3681 83.8606 20.9315C83.8606 20.9519 83.8606 20.9802 83.8606 20.9802C83.8606 21.7372 84.0852 22.0795 84.5877 22.0795C85.0101 22.0795 85.544 21.6288 86.2695 20.9001L87.2306 19.8887L87.5603 19.5322L88.2528 18.816L86.1329 22.0858L87.3373 22.0151L88.6753 19.7395C88.7522 19.6924 88.8103 19.6578 88.87 19.6751C88.8888 19.6751 88.903 19.7411 88.914 19.785L88.9626 19.9327C89.0443 20.1007 89.2532 20.1902 89.5515 20.1902C89.7284 20.1721 89.8987 20.1135 90.0493 20.019L89.809 20.4713C89.7389 20.6587 89.7022 20.857 89.7007 21.0571C89.7007 21.2959 89.7509 22.078 90.3995 22.078C90.8706 22.078 91.3731 21.5958 92.0405 20.9142C92.9199 19.9719 92.9199 19.8997 92.9199 19.873C92.9214 19.7568 92.8414 19.7442 92.7817 19.7442V19.7395ZM62.4899 18.1847C62.647 18.1847 62.6972 18.2381 62.6972 18.3779C62.6972 19.2982 61.3656 20.0913 60.4029 20.2625C60.6809 19.4882 61.7927 18.1878 62.4899 18.1878V18.1847ZM71.8711 21.7277C71.6732 21.7277 71.5759 21.5785 71.5759 21.2723C71.5759 20.1274 72.8808 18.1847 73.8733 18.1847C74.2439 18.1847 74.2988 18.5443 74.2988 18.7579C74.2988 20.0866 72.9609 21.7309 71.8711 21.7309V21.7277ZM74.5313 26.3403C74.2439 26.3403 74.1214 26.1911 74.1214 25.844C74.1214 24.7619 75.9901 23.6752 77.105 23.025L77.372 22.8679L77.4756 22.8051C77.0579 23.8291 75.4907 26.3434 74.5313 26.3434V26.3403ZM76.5633 21.7277C76.2822 21.7277 76.2696 21.4136 76.2696 21.3602C76.2696 20.3379 77.7269 18.1863 78.8732 18.1863C79.1339 18.1863 79.2266 18.3056 79.2266 18.6417C79.2234 19.3814 77.6405 21.7309 76.5633 21.7309V21.7277ZM82.1442 21.7277C81.9778 21.7277 81.893 21.599 81.893 21.3445C81.893 20.3002 83.2529 18.1847 84.3663 18.1847C84.6002 18.1847 84.7337 18.3418 84.7337 18.626C84.7337 19.6453 82.9922 21.7309 82.1427 21.7309L82.1442 21.7277Z" fill="#231F20"/>
</g>
<defs>
<clipPath id="clip0">
<rect width="93" height="27" fill="white"/>
</clipPath>
</defs>
</svg>
